<svg width="50" height="50" fill="none" xmlns="http://www.w3.org/2000/svg"><rect opacity=".1" x=".5" y=".5" width="49" height="49" rx="24.5" fill="#FBFF22" stroke="#0F0F0F"/><path d="M25.001 13c-3.259 0-3.668.014-4.948.072-1.277.059-2.15.261-2.913.558a5.876 5.876 0 00-2.125 1.384 5.89 5.89 0 00-1.385 2.125c-.298.764-.5 1.636-.558 2.913C13.015 21.332 13 21.742 13 25c0 3.26.014 3.667.072 4.947.06 1.277.262 2.15.558 2.912.307.79.717 1.46 1.384 2.126a5.877 5.877 0 002.125 1.385c.764.297 1.636.5 2.913.558 1.28.058 1.689.072 4.948.072 3.259 0 3.667-.014 4.947-.072 1.277-.059 2.15-.261 2.914-.558a5.872 5.872 0 002.124-1.385 5.89 5.89 0 001.385-2.125c.295-.764.498-1.636.558-2.913.057-1.28.072-1.688.072-4.947 0-3.259-.015-3.668-.072-4.948-.06-1.277-.263-2.15-.558-2.912a5.89 5.89 0 00-1.385-2.126 5.866 5.866 0 00-2.125-1.384c-.765-.297-1.638-.499-2.915-.558-1.28-.058-1.688-.072-4.948-.072h.004zm-1.076 2.162H25c3.204 0 3.584.012 4.85.07 1.17.053 1.804.248 2.227.413.56.217.96.477 1.38.897.42.42.68.82.897 1.38.165.423.36 1.058.414 2.228.057 1.265.07 1.645.07 4.847 0 3.203-.013 3.583-.07 4.848-.054 1.17-.25 1.805-.414 2.227a3.71 3.71 0 01-.898 1.379c-.42.42-.819.68-1.379.898-.422.165-1.058.36-2.228.413-1.265.057-1.645.07-4.849.07s-3.584-.013-4.849-.07c-1.17-.054-1.805-.25-2.228-.414a3.717 3.717 0 01-1.38-.897 3.72 3.72 0 01-.898-1.38c-.165-.422-.36-1.057-.414-2.227-.057-1.265-.068-1.645-.068-4.85 0-3.204.011-3.582.069-4.847.053-1.17.248-1.805.413-2.228.217-.56.478-.96.898-1.38.42-.42.82-.68 1.38-.898.423-.165 1.058-.36 2.228-.414 1.107-.05 1.536-.065 3.773-.068v.003zm7.482 1.993a1.44 1.44 0 100 2.88 1.44 1.44 0 000-2.88zM25 18.838a6.163 6.163 0 100 12.325 6.163 6.163 0 000-12.325zM25 21a4 4 0 110 8 4 4 0 010-8z" fill="url(#paint0_linear_4_132)"/><defs><linearGradient id="paint0_linear_4_132" x1="13" y1="23.843" x2="38.677" y2="29.951" gradientUnits="userSpaceOnUse"><stop stop-color="#FBFF22"/><stop offset="1" stop-color="#FCFF47"/></linearGradient></defs></svg>