<svg width="50" height="50" fill="none" xmlns="http://www.w3.org/2000/svg"><rect opacity=".1" x=".5" y=".5" width="49" height="49" rx="24.5" fill="#FBFF22" stroke="#0F0F0F"/><path d="M33.402 16.49a11.78 11.78 0 00-8.41-3.49c-6.552 0-11.89 5.337-11.895 11.889 0 2.098.547 4.14 1.585 5.947L13 37l6.306-1.654a11.9 11.9 0 005.685 1.449h.006c6.552 0 11.889-5.337 11.895-11.895a11.847 11.847 0 00-3.49-8.41zm-8.41 18.292a9.86 9.86 0 01-5.036-1.38l-.359-.217-3.74.981.998-3.65-.234-.376a9.84 9.84 0 01-1.511-5.257c0-5.44 4.436-9.876 9.887-9.876a9.84 9.84 0 016.99 2.897 9.835 9.835 0 012.892 6.99c-.006 5.457-4.442 9.888-9.888 9.888zm5.422-7.401c-.296-.149-1.756-.867-2.03-.97-.274-.097-.473-.148-.667.148-.2.297-.77.97-.94 1.164-.172.2-.349.222-.645.074-.297-.148-1.255-.462-2.39-1.477-.883-.787-1.476-1.762-1.653-2.058-.171-.297-.017-.457.131-.605.131-.131.297-.348.445-.519.148-.17.2-.296.297-.496.096-.2.05-.37-.023-.519-.074-.148-.668-1.613-.918-2.206-.24-.582-.485-.502-.668-.508-.17-.011-.37-.011-.57-.011-.2 0-.519.074-.792.37-.274.297-1.038 1.015-1.038 2.48 0 1.466 1.066 2.875 1.215 3.074.148.2 2.092 3.199 5.074 4.488.707.308 1.26.49 1.694.627.713.228 1.357.194 1.87.12.57-.086 1.756-.719 2.007-1.414.245-.696.245-1.29.171-1.415-.074-.125-.273-.2-.57-.347z" fill="#FBFF22"/></svg>