<svg width="50" height="50" fill="none" xmlns="http://www.w3.org/2000/svg"><rect opacity=".1" x=".5" y=".5" width="49" height="49" rx="24.5" fill="#FBFF22" stroke="#0F0F0F"/><path fill-rule="evenodd" clip-rule="evenodd" d="M22.429 21.969h3.714v1.85c.535-1.064 1.907-2.02 3.968-2.02 3.951 0 4.889 2.118 4.889 6.004V35h-4v-6.312c0-2.213-.535-3.461-1.897-3.461-1.889 0-2.674 1.345-2.674 3.46V35h-4V21.969zM15.57 34.83h4V21.799h-4V34.83zm4.573-17.28a2.53 2.53 0 01-.753 1.802 2.59 2.59 0 01-3.638.001A2.549 2.549 0 0115 17.55c0-.677.27-1.325.753-1.803a2.583 2.583 0 013.637 0c.482.478.753 1.126.753 1.803z" fill="#FBFF22"/></svg>