<svg width="35" height="38" fill="none" xmlns="http://www.w3.org/2000/svg"><path d="M10.482 21.125c0-1.417.284-2.65.85-3.7.567-1.067 1.35-1.892 2.35-2.475 1.017-.583 2.175-.875 3.475-.875 1.684 0 3.067.408 4.15 1.225 1.1.817 1.825 1.95 2.175 3.4h-2.45c-.233-.833-.691-1.492-1.375-1.975-.666-.483-1.5-.725-2.5-.725-1.3 0-2.35.45-3.15 1.35-.8.883-1.2 2.142-1.2 3.775 0 1.65.4 2.925 1.2 3.825.8.9 1.85 1.35 3.15 1.35 1 0 1.834-.233 2.5-.7.667-.467 1.125-1.133 1.375-2h2.45c-.366 1.4-1.1 2.525-2.2 3.375-1.1.833-2.475 1.25-4.125 1.25-1.3 0-2.458-.292-3.475-.875-1-.583-1.783-1.408-2.35-2.475-.566-1.067-.85-2.317-.85-3.75z" fill="#fff"/><path d="M34.5 21.5c0 8.81-7.583 16-17 16s-17-7.19-17-16c0-8.81 7.583-16 17-16s17 7.19 17 16z" stroke="#fff"/></svg>